<mxfile host="app.diagrams.net" agent="Mozilla/5.0 (Windows NT 10.0; Win64; x64) AppleWebKit/537.36 (KHTML, like Gecko) Chrome/127.0.0.0 Safari/537.36" version="24.7.6">
  <diagram name="Page-1" id="XJoEXvCxvIJXKw-SbkzF">
    <mxGraphModel dx="1032" dy="501" grid="1" gridSize="10" guides="1" tooltips="1" connect="1" arrows="1" fold="1" page="1" pageScale="1" pageWidth="850" pageHeight="1100" math="0" shadow="0">
      <root>
        <mxCell id="0" />
        <mxCell id="1" parent="0" />
        <mxCell id="Z1KxfnH4ZEORm4SsxlyS-5" style="edgeStyle=orthogonalEdgeStyle;rounded=0;orthogonalLoop=1;jettySize=auto;html=1;entryX=0.5;entryY=0;entryDx=0;entryDy=0;" parent="1" source="Z1KxfnH4ZEORm4SsxlyS-1" target="Z1KxfnH4ZEORm4SsxlyS-2" edge="1">
          <mxGeometry relative="1" as="geometry" />
        </mxCell>
        <mxCell id="Z1KxfnH4ZEORm4SsxlyS-1" value="Chủ trọ" style="rounded=0;whiteSpace=wrap;html=1;" parent="1" vertex="1">
          <mxGeometry x="80" y="90" width="120" height="60" as="geometry" />
        </mxCell>
        <mxCell id="Z1KxfnH4ZEORm4SsxlyS-2" value="5.0" style="swimlane;fontStyle=0;childLayout=stackLayout;horizontal=1;startSize=20;fillColor=#ffffff;horizontalStack=0;resizeParent=1;resizeParentMax=0;resizeLast=0;collapsible=0;marginBottom=0;swimlaneFillColor=#ffffff;rounded=1;glass=0;arcSize=50;" parent="1" vertex="1">
          <mxGeometry x="240" y="180" width="85" height="50" as="geometry" />
        </mxCell>
        <mxCell id="Z1KxfnH4ZEORm4SsxlyS-3" value="Báo cáo" style="text;html=1;align=center;verticalAlign=middle;whiteSpace=wrap;rounded=0;" parent="Z1KxfnH4ZEORm4SsxlyS-2" vertex="1">
          <mxGeometry y="20" width="85" height="30" as="geometry" />
        </mxCell>
        <mxCell id="Z1KxfnH4ZEORm4SsxlyS-7" style="edgeStyle=orthogonalEdgeStyle;rounded=0;orthogonalLoop=1;jettySize=auto;html=1;entryX=0.5;entryY=1;entryDx=0;entryDy=0;" parent="1" source="Z1KxfnH4ZEORm4SsxlyS-3" target="Z1KxfnH4ZEORm4SsxlyS-1" edge="1">
          <mxGeometry relative="1" as="geometry" />
        </mxCell>
        <mxCell id="Z1KxfnH4ZEORm4SsxlyS-8" value="&lt;font style=&quot;font-size: 10px;&quot;&gt;Báo cáo&lt;/font&gt;" style="text;html=1;align=center;verticalAlign=middle;whiteSpace=wrap;rounded=0;" parent="1" vertex="1">
          <mxGeometry x="140" y="195" width="90" height="20" as="geometry" />
        </mxCell>
        <mxCell id="Z1KxfnH4ZEORm4SsxlyS-9" value="&lt;font size=&quot;1&quot;&gt;Yêu cầu báo cáo&lt;/font&gt;" style="text;html=1;align=center;verticalAlign=middle;whiteSpace=wrap;rounded=0;" parent="1" vertex="1">
          <mxGeometry x="200" y="100" width="90" height="20" as="geometry" />
        </mxCell>
        <mxCell id="Z1KxfnH4ZEORm4SsxlyS-10" value="L." style="html=1;dashed=0;whiteSpace=wrap;shape=mxgraph.dfd.dataStoreID;align=left;spacingLeft=3;points=[[0,0],[0.5,0],[1,0],[0,0.5],[1,0.5],[0,1],[0.5,1],[1,1]];" parent="1" vertex="1">
          <mxGeometry x="380" y="70" width="150" height="30" as="geometry" />
        </mxCell>
        <mxCell id="Z1KxfnH4ZEORm4SsxlyS-11" value="Danh sách báo cáo" style="text;html=1;align=center;verticalAlign=middle;whiteSpace=wrap;rounded=0;" parent="1" vertex="1">
          <mxGeometry x="421.25" y="70" width="107.5" height="30" as="geometry" />
        </mxCell>
        <mxCell id="Z1KxfnH4ZEORm4SsxlyS-14" style="edgeStyle=orthogonalEdgeStyle;rounded=0;orthogonalLoop=1;jettySize=auto;html=1;entryX=0;entryY=0.5;entryDx=0;entryDy=0;" parent="1" target="Z1KxfnH4ZEORm4SsxlyS-10" edge="1">
          <mxGeometry relative="1" as="geometry">
            <mxPoint x="330" y="190" as="sourcePoint" />
          </mxGeometry>
        </mxCell>
        <mxCell id="Z1KxfnH4ZEORm4SsxlyS-34" style="edgeStyle=orthogonalEdgeStyle;rounded=0;orthogonalLoop=1;jettySize=auto;html=1;entryX=1;entryY=0.25;entryDx=0;entryDy=0;" parent="1" source="Z1KxfnH4ZEORm4SsxlyS-15" target="Z1KxfnH4ZEORm4SsxlyS-3" edge="1">
          <mxGeometry relative="1" as="geometry">
            <Array as="points">
              <mxPoint x="370" y="155" />
              <mxPoint x="370" y="208" />
            </Array>
          </mxGeometry>
        </mxCell>
        <mxCell id="Z1KxfnH4ZEORm4SsxlyS-15" value="a." style="html=1;dashed=0;whiteSpace=wrap;shape=mxgraph.dfd.dataStoreID;align=left;spacingLeft=3;points=[[0,0],[0.5,0],[1,0],[0,0.5],[1,0.5],[0,1],[0.5,1],[1,1]];" parent="1" vertex="1">
          <mxGeometry x="400" y="140" width="130" height="30" as="geometry" />
        </mxCell>
        <mxCell id="Z1KxfnH4ZEORm4SsxlyS-16" value="Danh sách nhà" style="text;html=1;align=center;verticalAlign=middle;whiteSpace=wrap;rounded=0;" parent="1" vertex="1">
          <mxGeometry x="430" y="140" width="107.5" height="30" as="geometry" />
        </mxCell>
        <mxCell id="Z1KxfnH4ZEORm4SsxlyS-35" style="edgeStyle=orthogonalEdgeStyle;rounded=0;orthogonalLoop=1;jettySize=auto;html=1;entryX=1;entryY=0.5;entryDx=0;entryDy=0;" parent="1" source="Z1KxfnH4ZEORm4SsxlyS-17" target="Z1KxfnH4ZEORm4SsxlyS-3" edge="1">
          <mxGeometry relative="1" as="geometry">
            <Array as="points">
              <mxPoint x="380" y="200" />
              <mxPoint x="380" y="215" />
            </Array>
          </mxGeometry>
        </mxCell>
        <mxCell id="Z1KxfnH4ZEORm4SsxlyS-17" value="b." style="html=1;dashed=0;whiteSpace=wrap;shape=mxgraph.dfd.dataStoreID;align=left;spacingLeft=3;points=[[0,0],[0.5,0],[1,0],[0,0.5],[1,0.5],[0,1],[0.5,1],[1,1]];" parent="1" vertex="1">
          <mxGeometry x="400" y="185" width="130" height="30" as="geometry" />
        </mxCell>
        <mxCell id="Z1KxfnH4ZEORm4SsxlyS-18" value="Danh sách khách" style="text;html=1;align=center;verticalAlign=middle;whiteSpace=wrap;rounded=0;" parent="1" vertex="1">
          <mxGeometry x="430" y="185" width="107.5" height="30" as="geometry" />
        </mxCell>
        <mxCell id="Z1KxfnH4ZEORm4SsxlyS-36" style="edgeStyle=orthogonalEdgeStyle;rounded=0;orthogonalLoop=1;jettySize=auto;html=1;entryX=1;entryY=0.75;entryDx=0;entryDy=0;" parent="1" source="Z1KxfnH4ZEORm4SsxlyS-19" target="Z1KxfnH4ZEORm4SsxlyS-3" edge="1">
          <mxGeometry relative="1" as="geometry">
            <Array as="points">
              <mxPoint x="363" y="240" />
              <mxPoint x="363" y="223" />
            </Array>
          </mxGeometry>
        </mxCell>
        <mxCell id="Z1KxfnH4ZEORm4SsxlyS-19" value="c." style="html=1;dashed=0;whiteSpace=wrap;shape=mxgraph.dfd.dataStoreID;align=left;spacingLeft=3;points=[[0,0],[0.5,0],[1,0],[0,0.5],[1,0.5],[0,1],[0.5,1],[1,1]];" parent="1" vertex="1">
          <mxGeometry x="400" y="230" width="150" height="30" as="geometry" />
        </mxCell>
        <mxCell id="Z1KxfnH4ZEORm4SsxlyS-20" value="Danh sách hợp đồng" style="text;html=1;align=center;verticalAlign=middle;whiteSpace=wrap;rounded=0;" parent="1" vertex="1">
          <mxGeometry x="433.75" y="230" width="120" height="30" as="geometry" />
        </mxCell>
        <mxCell id="Z1KxfnH4ZEORm4SsxlyS-21" value="e." style="html=1;dashed=0;whiteSpace=wrap;shape=mxgraph.dfd.dataStoreID;align=left;spacingLeft=3;points=[[0,0],[0.5,0],[1,0],[0,0.5],[1,0.5],[0,1],[0.5,1],[1,1]];" parent="1" vertex="1">
          <mxGeometry x="400" y="270" width="150" height="30" as="geometry" />
        </mxCell>
        <mxCell id="Z1KxfnH4ZEORm4SsxlyS-22" value="Danh sách tiền nhà" style="text;html=1;align=center;verticalAlign=middle;whiteSpace=wrap;rounded=0;" parent="1" vertex="1">
          <mxGeometry x="430" y="270" width="120" height="30" as="geometry" />
        </mxCell>
        <mxCell id="Z1KxfnH4ZEORm4SsxlyS-38" style="edgeStyle=orthogonalEdgeStyle;rounded=0;orthogonalLoop=1;jettySize=auto;html=1;entryX=0.75;entryY=1;entryDx=0;entryDy=0;" parent="1" source="Z1KxfnH4ZEORm4SsxlyS-23" target="Z1KxfnH4ZEORm4SsxlyS-3" edge="1">
          <mxGeometry relative="1" as="geometry">
            <Array as="points">
              <mxPoint x="304" y="320" />
            </Array>
          </mxGeometry>
        </mxCell>
        <mxCell id="Z1KxfnH4ZEORm4SsxlyS-23" value="f." style="html=1;dashed=0;whiteSpace=wrap;shape=mxgraph.dfd.dataStoreID;align=left;spacingLeft=3;points=[[0,0],[0.5,0],[1,0],[0,0.5],[1,0.5],[0,1],[0.5,1],[1,1]];" parent="1" vertex="1">
          <mxGeometry x="400" y="310" width="150" height="30" as="geometry" />
        </mxCell>
        <mxCell id="Z1KxfnH4ZEORm4SsxlyS-24" value="Biên bản sự cố" style="text;html=1;align=center;verticalAlign=middle;whiteSpace=wrap;rounded=0;" parent="1" vertex="1">
          <mxGeometry x="430" y="310" width="120" height="30" as="geometry" />
        </mxCell>
        <mxCell id="Z1KxfnH4ZEORm4SsxlyS-26" value="g." style="html=1;dashed=0;whiteSpace=wrap;shape=mxgraph.dfd.dataStoreID;align=left;spacingLeft=3;points=[[0,0],[0.5,0],[1,0],[0,0.5],[1,0.5],[0,1],[0.5,1],[1,1]];" parent="1" vertex="1">
          <mxGeometry x="400" y="360" width="150" height="30" as="geometry" />
        </mxCell>
        <mxCell id="Z1KxfnH4ZEORm4SsxlyS-27" value="Hoá đơn bồi thường sự cố" style="text;html=1;align=center;verticalAlign=middle;whiteSpace=wrap;rounded=0;" parent="1" vertex="1">
          <mxGeometry x="433.75" y="360" width="120" height="30" as="geometry" />
        </mxCell>
        <mxCell id="Z1KxfnH4ZEORm4SsxlyS-28" value="h." style="html=1;dashed=0;whiteSpace=wrap;shape=mxgraph.dfd.dataStoreID;align=left;spacingLeft=3;points=[[0,0],[0.5,0],[1,0],[0,0.5],[1,0.5],[0,1],[0.5,1],[1,1]];" parent="1" vertex="1">
          <mxGeometry x="80" y="280" width="150" height="30" as="geometry" />
        </mxCell>
        <mxCell id="Z1KxfnH4ZEORm4SsxlyS-32" style="edgeStyle=orthogonalEdgeStyle;rounded=0;orthogonalLoop=1;jettySize=auto;html=1;entryX=0.5;entryY=1;entryDx=0;entryDy=0;" parent="1" source="Z1KxfnH4ZEORm4SsxlyS-29" target="Z1KxfnH4ZEORm4SsxlyS-3" edge="1">
          <mxGeometry relative="1" as="geometry">
            <Array as="points">
              <mxPoint x="170" y="250" />
              <mxPoint x="283" y="250" />
            </Array>
          </mxGeometry>
        </mxCell>
        <mxCell id="Z1KxfnH4ZEORm4SsxlyS-29" value="Hoá đơn chi phí bảo trì" style="text;html=1;align=center;verticalAlign=middle;whiteSpace=wrap;rounded=0;" parent="1" vertex="1">
          <mxGeometry x="110" y="280" width="120" height="30" as="geometry" />
        </mxCell>
        <mxCell id="Z1KxfnH4ZEORm4SsxlyS-30" value="i." style="html=1;dashed=0;whiteSpace=wrap;shape=mxgraph.dfd.dataStoreID;align=left;spacingLeft=3;points=[[0,0],[0.5,0],[1,0],[0,0.5],[1,0.5],[0,1],[0.5,1],[1,1]];" parent="1" vertex="1">
          <mxGeometry x="80" y="330" width="150" height="30" as="geometry" />
        </mxCell>
        <mxCell id="Z1KxfnH4ZEORm4SsxlyS-33" style="edgeStyle=orthogonalEdgeStyle;rounded=0;orthogonalLoop=1;jettySize=auto;html=1;entryX=0.25;entryY=1;entryDx=0;entryDy=0;" parent="1" source="Z1KxfnH4ZEORm4SsxlyS-31" target="Z1KxfnH4ZEORm4SsxlyS-3" edge="1">
          <mxGeometry relative="1" as="geometry" />
        </mxCell>
        <mxCell id="Z1KxfnH4ZEORm4SsxlyS-31" value="Báo cáo bảo trì" style="text;html=1;align=center;verticalAlign=middle;whiteSpace=wrap;rounded=0;" parent="1" vertex="1">
          <mxGeometry x="110" y="330" width="120" height="30" as="geometry" />
        </mxCell>
        <mxCell id="Z1KxfnH4ZEORm4SsxlyS-37" style="edgeStyle=orthogonalEdgeStyle;rounded=0;orthogonalLoop=1;jettySize=auto;html=1;entryX=0.906;entryY=0.967;entryDx=0;entryDy=0;entryPerimeter=0;" parent="1" source="Z1KxfnH4ZEORm4SsxlyS-21" target="Z1KxfnH4ZEORm4SsxlyS-3" edge="1">
          <mxGeometry relative="1" as="geometry" />
        </mxCell>
        <mxCell id="Z1KxfnH4ZEORm4SsxlyS-39" style="edgeStyle=orthogonalEdgeStyle;rounded=0;orthogonalLoop=1;jettySize=auto;html=1;entryX=0.624;entryY=0.933;entryDx=0;entryDy=0;entryPerimeter=0;" parent="1" source="Z1KxfnH4ZEORm4SsxlyS-26" target="Z1KxfnH4ZEORm4SsxlyS-3" edge="1">
          <mxGeometry relative="1" as="geometry" />
        </mxCell>
        <mxCell id="svgntC1H9RBwEL7w_Wvt-1" value="n." style="html=1;dashed=0;whiteSpace=wrap;shape=mxgraph.dfd.dataStoreID;align=left;spacingLeft=3;points=[[0,0],[0.5,0],[1,0],[0,0.5],[1,0.5],[0,1],[0.5,1],[1,1]];" vertex="1" parent="1">
          <mxGeometry x="80" y="380" width="150" height="30" as="geometry" />
        </mxCell>
        <mxCell id="svgntC1H9RBwEL7w_Wvt-2" value="Báo cáo tài chính" style="text;html=1;align=center;verticalAlign=middle;whiteSpace=wrap;rounded=0;" vertex="1" parent="1">
          <mxGeometry x="110" y="380" width="120" height="30" as="geometry" />
        </mxCell>
        <mxCell id="svgntC1H9RBwEL7w_Wvt-3" style="edgeStyle=orthogonalEdgeStyle;rounded=0;orthogonalLoop=1;jettySize=auto;html=1;entryX=0.384;entryY=1.015;entryDx=0;entryDy=0;entryPerimeter=0;" edge="1" parent="1" source="svgntC1H9RBwEL7w_Wvt-1" target="Z1KxfnH4ZEORm4SsxlyS-3">
          <mxGeometry relative="1" as="geometry" />
        </mxCell>
      </root>
    </mxGraphModel>
  </diagram>
</mxfile>
